<svg width="60" height="51" viewBox="0 0 60 51" fill="none" xmlns="http://www.w3.org/2000/svg">
<path d="M53.3455 40.1565H6.65447C6.2932 40.1565 6 39.8633 6 39.5021V12.6545C6 12.2932 6.2932 12 6.65447 12H53.3455C53.7068 12 54 12.2932 54 12.6545V39.5034C54 39.8646 53.7068 40.1565 53.3455 40.1565ZM7.30894 38.8476H52.6911V13.3089H7.30894V38.8476Z" fill="#2580CC"/>
<path d="M53.3455 18.8169C49.9475 18.8169 47.1831 16.0525 47.1831 12.6545C47.1831 12.2932 47.4763 12 47.8375 12C48.1988 12 48.492 12.2932 48.492 12.6545C48.492 15.3312 50.6701 17.508 53.3455 17.508C53.7068 17.508 54 17.8012 54 18.1625C54 18.5237 53.7068 18.8169 53.3455 18.8169Z" fill="#2580CC"/>
<path d="M47.8362 40.1565C47.4749 40.1565 47.1817 39.8633 47.1817 39.5021C47.1817 36.1041 49.9462 33.3396 53.3442 33.3396C53.7055 33.3396 53.9987 33.6328 53.9987 33.9941C53.9987 34.3553 53.7055 34.6485 53.3442 34.6485C50.6674 34.6485 48.4907 36.8266 48.4907 39.5021C48.4907 39.8646 48.1988 40.1565 47.8362 40.1565Z" fill="#2580CC"/>
<path d="M6.65447 18.8169C6.2932 18.8169 6 18.5237 6 18.1625C6 17.8012 6.2932 17.508 6.65447 17.508C9.33124 17.508 11.508 15.3299 11.508 12.6545C11.508 12.2932 11.8012 12 12.1625 12C12.5237 12 12.8169 12.2932 12.8169 12.6545C12.8169 16.0525 10.0525 18.8169 6.65447 18.8169Z" fill="#2580CC"/>
<path d="M12.1625 40.1565C11.8012 40.1565 11.508 39.8633 11.508 39.5021C11.508 36.8253 9.32993 34.6485 6.65447 34.6485C6.2932 34.6485 6 34.3553 6 33.9941C6 33.6328 6.2932 33.3396 6.65447 33.3396C10.0525 33.3396 12.8169 36.1041 12.8169 39.5021C12.8169 39.8646 12.525 40.1565 12.1625 40.1565Z" fill="#2580CC"/>
<path d="M30.2755 32.9414C28.4836 32.9414 26.2414 31.8249 25.2911 31.071C25.0084 30.8471 24.96 30.4348 25.1851 30.1521C25.4102 29.8694 25.8212 29.8209 26.104 30.0461C26.922 30.694 28.8776 31.6325 30.2755 31.6325C31.6355 31.6325 33.6474 30.906 33.6474 29.3445C33.6474 27.9505 32.2769 27.4007 30.4863 26.8274L29.9562 26.6546C28.5399 26.1782 25.5948 25.1847 25.5948 22.7998C25.5948 20.4948 27.388 18.9463 30.0556 18.9463C32.7442 18.9463 34.4301 20.3272 34.5008 20.3861C34.7783 20.6178 34.8162 21.0301 34.5833 21.3076C34.3529 21.5838 33.9419 21.6231 33.6631 21.3927C33.6369 21.3717 32.2403 20.2552 30.0543 20.2552C28.1106 20.2552 26.9024 21.2304 26.9024 22.7998C26.9024 24.0734 28.6564 24.8365 30.3724 25.4151L30.8829 25.5813C32.5034 26.0996 34.9537 26.8837 34.9537 29.3445C34.9563 31.8262 32.2193 32.9414 30.2755 32.9414Z" fill="#2580CC"/>
<path d="M30.0557 34.8906C29.6944 34.8906 29.4012 34.5974 29.4012 34.2361V17.9831C29.4012 17.6218 29.6944 17.3286 30.0557 17.3286C30.4169 17.3286 30.7101 17.6218 30.7101 17.9831V34.2361C30.7101 34.5974 30.4169 34.8906 30.0557 34.8906Z" fill="#2580CC"/>
</svg>
