<svg xmlns="http://www.w3.org/2000/svg" width="1373" height="739" viewBox="0 0 1373 739">
    <g fill="none" fill-rule="evenodd" stroke-width="2" transform="translate(1 -4)">
        <rect width="14" height="14" x="1179.561" y="259.058" stroke="#CEBEF1" opacity=".79" rx="2" transform="rotate(-149 1186.561 266.058)"/>
        <rect width="11" height="11" x="950.908" y="645.961" stroke="#CEBEF1" opacity=".88" rx="2" transform="rotate(-44 956.408 651.461)"/>
        <rect width="11" height="11" x="957.81" y="8.163" stroke="#CEBEF1" opacity=".99" rx="2" transform="rotate(97 963.31 13.663)"/>
        <rect width="12" height="12" x="819.648" y="642.735" stroke="#CEBEF1" opacity=".75" rx="2" transform="rotate(-114 825.648 648.735)"/>
        <rect width="15" height="15" x="411.587" y="651.587" stroke="#CEBEF1" opacity=".73" rx="2" transform="rotate(-63 419.087 659.087)"/>
        <rect width="15" height="15" x="608.587" y="510.587" stroke="#CEBEF1" opacity=".73" rx="2" transform="rotate(-63 616.087 518.087)"/>
        <rect width="16" height="16" x="521.066" y="51.066" stroke="#CEBEF1" opacity=".98" rx="2" transform="rotate(147 529.066 59.066)"/>
        <rect width="15" height="15" x="212.951" y="332.951" stroke="#CEBEF1" opacity=".89" rx="2" transform="rotate(18 220.45 340.45)"/>
        <rect width="10" height="10" x="181.837" y="146.947" stroke="#CEBEF1" opacity=".9" rx="2" transform="rotate(-125 186.837 151.947)"/>
        <path stroke="#FBE9E9" d="M1350.165 532.25c4.094 1.82 3.753-2.334 6.503-1.11 2.75 1.225.191 3.735 3.67 5.284 3.48 1.55 3.73-2.362 6.491-1.133 2.761 1.23.729 4.703 4.347 6.314" opacity=".81"/>
        <path stroke="#FBE9E9" d="M1243.279 608.734c4.859-.342 2.433-3.838 5.697-4.066 3.265-.229 2.07 3.197 6.2 2.908 4.13-.289 2.396-3.851 5.672-4.08 3.277-.23 3.075 3.795 7.37 3.494M949.279 294.734c4.859-.342 2.433-3.838 5.697-4.066 3.265-.229 2.07 3.197 6.2 2.908 4.13-.289 2.396-3.851 5.672-4.08 3.277-.23 3.075 3.795 7.37 3.494" opacity=".79"/>
        <path stroke="#FBE9E9" d="M1276.627 101.433c1.035-4.16-2.09-2.965-1.393-5.759.697-2.794 2.819-.967 3.7-4.502.881-3.535-2.108-2.937-1.409-5.742.7-2.805 3.508-1.667 4.424-5.343M16.32 382c-3.178 2.576-.032 3.557-2.168 5.287s-2.776-.97-5.478 1.219c-2.703 2.188-.002 3.547-2.146 5.284-2.144 1.736-3.718-.85-6.528 1.426" opacity=".84"/>
        <path stroke="#FBE9E9" d="M824.937 293.905c3.19 3.935 4.607-.125 6.75 2.52 2.141 2.645-1.387 3.586 1.323 6.932 2.71 3.346 4.596-.163 6.746 2.492 2.15 2.654-1.274 4.782 1.543 8.262" opacity=".8"/>
        <path stroke="#FBE9E9" d="M823.89 116.785c-.232 4.475 3.524 2.667 3.367 5.674-.158 3.006-3.418 1.516-3.618 5.32-.2 3.804 3.542 2.635 3.384 5.653-.158 3.018-4.13 2.366-4.337 6.321" opacity=".94"/>
        <path stroke="#FBE9E9" d="M739.92 358.093c-5.046-.438-3.11 3.402-6.501 3.105-3.39-.297-1.617-3.488-5.906-3.864-4.29-.375-3.075 3.42-6.478 3.122-3.404-.297-2.555-4.238-7.016-4.629" opacity=".71"/>
        <path stroke="#FBE9E9" d="M662.628 420.824c-1.826-5.961-5.383-1.962-6.607-5.967-1.225-4.006 3.296-3.472 1.747-8.54-1.55-5.068-5.388-1.912-6.617-5.933-1.23-4.02 3.732-4.892 2.121-10.162" opacity=".8"/>
        <path stroke="#FBE9E9" d="M359.33 263.288c3.163 4.682 5.54.033 7.664 3.18 2.122 3.147-2.261 4.101.424 8.083 2.686 3.981 5.533-.012 7.664 3.147 2.13 3.16-2.327 5.491.465 9.632" opacity=".81"/>
        <path stroke="#FBE9E9" d="M271.284 740.098c5.545-1.082 2.196-5.087 5.922-5.811 3.726-.724 2.891 3.683 7.606 2.767 4.714-.916 2.15-5.097 5.891-5.825 3.74-.727 4.146 4.288 9.048 3.335" opacity=".83"/>
        <path stroke="#FBE9E9" d="M257.668 416.797c-1.604 3.975 1.656 3.227.577 5.897-1.079 2.67-2.925.565-4.29 3.943-1.365 3.378 1.679 3.202.596 5.882-1.083 2.68-3.706 1.163-5.125 4.676" opacity=".97"/>
        <path stroke="#FFD185" d="M1332.347 264.331c-6.611-.462-12.346 4.523-12.808 11.134-.462 6.611 4.523 12.346 11.134 12.808 6.611.462 12.345-4.522 12.808-11.134M1318.495 104.081c5.756-.707 9.849-5.946 9.142-11.701-.707-5.756-5.946-9.85-11.701-9.142-5.756.706-9.85 5.945-9.143 11.7" opacity=".75"/>
        <path stroke="#FFD185" d="M1140.053 421.762a9 9 0 1 0-10.674 6.932" opacity=".98"/>
        <path stroke="#FFD185" d="M1128.941 190.448a9 9 0 1 0 8.68-9.309" opacity=".94"/>
        <path stroke="#FFD185" d="M877.175 440.71c4.514 4.065 11.47 3.7 15.535-.815 4.065-4.514 3.7-11.47-.815-15.535-4.514-4.065-11.47-3.7-15.535.815" opacity=".92"/>
        <path stroke="#FFD185" d="M731.108 597.89a9 9 0 1 0 6.555-10.91" opacity=".86"/>
        <path stroke="#FFD185" d="M1115.972 574.861a8.5 8.5 0 1 0-11.61 3.111" opacity=".91"/>
        <path stroke="#FFD185" d="M431.175 475.36c-4.515 4.065-4.88 11.02-.815 15.535 4.065 4.515 11.02 4.88 15.535.815 4.515-4.065 4.88-11.02.815-15.535" opacity=".84"/>
        <path stroke="#FFD185" d="M651.266 242.928c1.536-6.163-2.214-12.404-8.376-13.94-6.163-1.537-12.404 2.213-13.941 8.375-1.536 6.163 2.214 12.404 8.376 13.941" opacity=".74"/>
        <path stroke="#FFD185" d="M550.607 734.13a8.5 8.5 0 1 0-9.6-7.234" opacity=".78"/>
        <path stroke="#FFD185" d="M481.606 353.313a7.5 7.5 0 1 0 10.143 3.1" opacity=".96"/>
        <path stroke="#FFD185" d="M530.775 149.679a8 8 0 1 0 8.139-7.86" opacity=".97"/>
        <path stroke="#FFD185" d="M320.171 90.998c-.096-5.522-4.65-9.92-10.173-9.823-5.522.096-9.92 4.65-9.823 10.173.096 5.522 4.65 9.92 10.173 9.823" opacity=".83"/>
        <path stroke="#FFD185" d="M124.19 553.644c-1.603-6.431-8.116-10.344-14.546-8.74-6.431 1.602-10.344 8.115-8.74 14.546 1.602 6.43 8.115 10.343 14.546 8.74" opacity=".82"/>
        <path stroke="#FFD185" d="M37.033 731.53a9 9 0 1 0-8.35 9.605" opacity=".86"/>
        <path stroke="#FFD185" d="M80.507 267.204a8 8 0 1 0 3.683-10.697" opacity=".75"/>
        <path stroke="#FFD185" d="M44.99 26.866c5.361 3.896 12.865 2.707 16.761-2.655 3.895-5.361 2.707-12.866-2.655-16.761-5.362-3.896-12.866-2.707-16.761 2.654" opacity=".7"/>
    </g>
</svg>
